# Blender 3.3.1
# www.blender.org
o Cylinder
v 0.000000 0.000000 -0.010000
v 0.000000 0.020000 -0.010000
v 0.001951 0.000000 -0.009808
v 0.001951 0.020000 -0.009808
v 0.003827 0.000000 -0.009239
v 0.003827 0.020000 -0.009239
v 0.005556 0.000000 -0.008315
v 0.005556 0.020000 -0.008315
v 0.007071 0.000000 -0.007071
v 0.007071 0.020000 -0.007071
v 0.008315 0.000000 -0.005556
v 0.008315 0.020000 -0.005556
v 0.009239 0.000000 -0.003827
v 0.009239 0.020000 -0.003827
v 0.009808 0.000000 -0.001951
v 0.009808 0.020000 -0.001951
v 0.010000 0.000000 0.000000
v 0.010000 0.020000 0.000000
v 0.009808 0.000000 0.001951
v 0.009808 0.020000 0.001951
v 0.009239 0.000000 0.003827
v 0.009239 0.020000 0.003827
v 0.008315 0.000000 0.005556
v 0.008315 0.020000 0.005556
v 0.007071 0.000000 0.007071
v 0.007071 0.020000 0.007071
v 0.005556 0.000000 0.008315
v 0.005556 0.020000 0.008315
v 0.003827 0.000000 0.009239
v 0.003827 0.020000 0.009239
v 0.001951 0.000000 0.009808
v 0.001951 0.020000 0.009808
v 0.000000 0.000000 0.010000
v 0.000000 0.020000 0.010000
v -0.001951 0.000000 0.009808
v -0.001951 0.020000 0.009808
v -0.003827 0.000000 0.009239
v -0.003827 0.020000 0.009239
v -0.005556 0.000000 0.008315
v -0.005556 0.020000 0.008315
v -0.007071 0.000000 0.007071
v -0.007071 0.020000 0.007071
v -0.008315 0.000000 0.005556
v -0.008315 0.020000 0.005556
v -0.009239 0.000000 0.003827
v -0.009239 0.020000 0.003827
v -0.009808 0.000000 0.001951
v -0.009808 0.020000 0.001951
v -0.010000 0.000000 0.000000
v -0.010000 0.020000 0.000000
v -0.009808 0.000000 -0.001951
v -0.009808 0.020000 -0.001951
v -0.009239 0.000000 -0.003827
v -0.009239 0.020000 -0.003827
v -0.008315 0.000000 -0.005556
v -0.008315 0.020000 -0.005556
v -0.007071 0.000000 -0.007071
v -0.007071 0.020000 -0.007071
v -0.005556 0.000000 -0.008315
v -0.005556 0.020000 -0.008315
v -0.003827 0.000000 -0.009239
v -0.003827 0.020000 -0.009239
v -0.001951 0.000000 -0.009808
v -0.001951 0.020000 -0.009808
vn 0.0980 -0.0000 -0.9952
vn 0.2903 -0.0000 -0.9569
vn 0.4714 -0.0000 -0.8819
vn 0.6344 -0.0000 -0.7730
vn 0.7730 -0.0000 -0.6344
vn 0.8819 -0.0000 -0.4714
vn 0.9569 -0.0000 -0.2903
vn 0.9952 -0.0000 -0.0980
vn 0.9952 -0.0000 0.0980
vn 0.9569 -0.0000 0.2903
vn 0.8819 -0.0000 0.4714
vn 0.6754 0.5564 0.4841
vn 0.6754 0.5563 0.4841
vn 0.7730 -0.0000 0.6344
vn 0.6344 -0.0000 0.7730
vn 0.4714 -0.0000 0.8819
vn 0.2903 -0.0000 0.9569
vn 0.0980 -0.0000 0.9952
vn -0.0980 -0.0000 0.9952
vn -0.2903 -0.0000 0.9569
vn -0.4714 -0.0000 0.8819
vn -0.6344 -0.0000 0.7730
vn -0.7730 -0.0000 0.6344
vn -0.8819 -0.0000 0.4714
vn -0.9569 -0.0000 0.2903
vn -0.9952 -0.0000 0.0980
vn -0.9952 -0.0000 -0.0980
vn -0.9569 -0.0000 -0.2903
vn -0.8819 -0.0000 -0.4714
vn -0.7730 -0.0000 -0.6344
vn -0.6344 -0.0000 -0.7730
vn -0.4714 -0.0000 -0.8819
vn -0.0000 1.0000 -0.0000
vn -0.2903 -0.0000 -0.9569
vn -0.0980 -0.0000 -0.9952
vn -0.0000 -1.0000 -0.0000
s 0
f 2//1 4//1 3//1
f 4//2 6//2 5//2
f 6//3 8//3 7//3
f 8//4 10//4 9//4
f 10//5 12//5 11//5
f 12//6 14//6 13//6
f 14//7 16//7 15//7
f 16//8 18//8 17//8
f 18//9 20//9 19//9
f 20//10 22//10 21//10
f 22//11 24//12 23//11
f 24//13 26//14 25//14
f 26//15 28//15 27//15
f 28//16 30//16 29//16
f 30//17 32//17 31//17
f 32//18 34//18 33//18
f 34//19 36//19 35//19
f 36//20 38//20 37//20
f 38//21 40//21 39//21
f 40//22 42//22 41//22
f 42//23 44//23 43//23
f 44//24 46//24 45//24
f 46//25 48//25 47//25
f 48//26 50//26 49//26
f 50//27 52//27 51//27
f 52//28 54//28 53//28
f 54//29 56//29 55//29
f 56//30 58//30 57//30
f 58//31 60//31 59//31
f 60//32 62//32 61//32
f 56//33 60//33 58//33
f 62//34 64//34 63//34
f 64//35 2//35 1//35
f 1//36 3//36 5//36 7//36 9//36 11//36 13//36 15//36 17//36 19//36 21//36 23//36 25//36 27//36 29//36 31//36 33//36 35//36 37//36 39//36 41//36 43//36 45//36 47//36 49//36 51//36 53//36 55//36 57//36 59//36 61//36 63//36
f 54//33 60//33 56//33
f 52//33 60//33 54//33
f 50//33 60//33 52//33
f 48//33 60//33 50//33
f 46//33 60//33 48//33
f 44//33 60//33 46//33
f 42//33 60//33 44//33
f 40//33 60//33 42//33
f 38//33 60//33 40//33
f 36//33 60//33 38//33
f 34//33 60//33 36//33
f 32//33 60//33 34//33
f 30//33 60//33 32//33
f 28//33 60//33 30//33
f 26//33 60//33 28//33
f 24//13 60//33 26//33
f 22//33 60//33 24//13
f 20//33 60//33 22//33
f 18//33 60//33 20//33
f 16//33 60//33 18//33
f 14//33 60//33 16//33
f 12//33 60//33 14//33
f 10//33 60//33 12//33
f 8//33 60//33 10//33
f 6//33 60//33 8//33
f 64//33 62//33 60//33
f 6//33 4//33 60//33
f 4//33 2//33 60//33
f 2//33 64//33 60//33
f 63//35 64//35 1//35
f 1//1 2//1 3//1
f 3//2 4//2 5//2
f 5//3 6//3 7//3
f 7//4 8//4 9//4
f 9//5 10//5 11//5
f 11//6 12//6 13//6
f 13//7 14//7 15//7
f 15//8 16//8 17//8
f 17//9 18//9 19//9
f 19//10 20//10 21//10
f 21//11 22//11 23//11
f 23//14 24//13 25//14
f 25//15 26//15 27//15
f 27//16 28//16 29//16
f 29//17 30//17 31//17
f 31//18 32//18 33//18
f 33//19 34//19 35//19
f 35//20 36//20 37//20
f 37//21 38//21 39//21
f 39//22 40//22 41//22
f 41//23 42//23 43//23
f 43//24 44//24 45//24
f 45//25 46//25 47//25
f 47//26 48//26 49//26
f 49//27 50//27 51//27
f 51//28 52//28 53//28
f 53//29 54//29 55//29
f 55//30 56//30 57//30
f 57//31 58//31 59//31
f 59//32 60//32 61//32
f 61//34 62//34 63//34
